<svg width="202" height="177" viewBox="0 0 202 177" fill="none" xmlns="http://www.w3.org/2000/svg">
<path d="M112.59 0L62.9181 23.2782L76.164 29.264V40.5705C72.1902 41.9007 69.541 45.8913 69.541 49.8818C69.541 53.8724 72.1902 57.8629 76.164 59.1931V59.8582L70.2033 73.8251C68.2165 79.8109 69.541 86.4618 79.4755 86.4618C89.4099 86.4618 90.7345 79.8109 88.7476 73.8251L82.7869 59.8582C86.7607 57.8629 89.4099 54.5375 89.4099 49.8818C89.4099 45.2262 86.7607 41.9007 82.7869 40.5705V32.5895L112.59 46.5564L162.262 23.2782L112.59 0ZM141.731 43.2309L111.928 56.5327L96.0328 49.2167V49.8818C96.0328 54.5375 94.046 58.528 90.7345 61.8535L94.7083 71.1647V71.8298C95.3705 74.4902 96.0328 77.1505 95.3705 79.8109C100.007 81.8062 105.305 83.1364 111.928 83.1364C133.784 83.1364 141.731 69.8345 141.731 63.1836V43.2309Z" fill="#F49F1C"/>
<path d="M55.1548 103.638C55.098 103.065 54.8542 102.62 54.4233 102.303C53.9924 101.985 53.4077 101.827 52.669 101.827C52.1671 101.827 51.7434 101.898 51.3977 102.04C51.0521 102.177 50.7869 102.369 50.6023 102.615C50.4223 102.861 50.3324 103.141 50.3324 103.453C50.3229 103.714 50.3774 103.941 50.4957 104.135C50.6188 104.329 50.7869 104.497 51 104.639C51.2131 104.777 51.4593 104.897 51.7386 105.001C52.018 105.101 52.3163 105.186 52.6335 105.257L53.9403 105.57C54.5748 105.712 55.1572 105.901 55.6875 106.138C56.2178 106.375 56.6771 106.666 57.0653 107.011C57.4536 107.357 57.7543 107.764 57.9673 108.233C58.1851 108.702 58.2964 109.239 58.3011 109.845C58.2964 110.735 58.0691 111.507 57.6193 112.161C57.1742 112.809 56.5303 113.313 55.6875 113.673C54.8494 114.028 53.8385 114.206 52.6548 114.206C51.4806 114.206 50.4579 114.026 49.5866 113.666C48.7202 113.306 48.0431 112.774 47.5554 112.068C47.0724 111.358 46.8191 110.48 46.7955 109.433H49.7713C49.8045 109.921 49.9441 110.328 50.1903 110.655C50.4413 110.977 50.7751 111.221 51.1918 111.386C51.6132 111.547 52.089 111.628 52.6193 111.628C53.1402 111.628 53.5923 111.552 53.9759 111.401C54.3641 111.249 54.6648 111.038 54.8778 110.768C55.0909 110.499 55.1974 110.188 55.1974 109.838C55.1974 109.511 55.1004 109.237 54.9062 109.014C54.7169 108.792 54.4375 108.602 54.0682 108.446C53.7036 108.29 53.2562 108.148 52.7259 108.02L51.142 107.622C49.9157 107.324 48.9474 106.857 48.2372 106.223C47.527 105.589 47.1742 104.734 47.179 103.659C47.1742 102.778 47.4086 102.009 47.8821 101.351C48.3603 100.693 49.0161 100.179 49.8494 99.8097C50.6828 99.4403 51.6297 99.2557 52.6903 99.2557C53.7699 99.2557 54.7121 99.4403 55.517 99.8097C56.3267 100.179 56.9564 100.693 57.4062 101.351C57.8561 102.009 58.0881 102.771 58.1023 103.638H55.1548ZM60.3129 114V103.091H63.3384V114H60.3129ZM61.8327 101.685C61.3829 101.685 60.997 101.536 60.6751 101.237C60.3578 100.934 60.1992 100.572 60.1992 100.151C60.1992 99.7339 60.3578 99.3764 60.6751 99.0781C60.997 98.7751 61.3829 98.6236 61.8327 98.6236C62.2826 98.6236 62.6661 98.7751 62.9833 99.0781C63.3053 99.3764 63.4663 99.7339 63.4663 100.151C63.4663 100.572 63.3053 100.934 62.9833 101.237C62.6661 101.536 62.2826 101.685 61.8327 101.685ZM68.5036 110.861L68.5107 107.232H68.951L72.4453 103.091H75.9183L71.2237 108.574H70.5064L68.5036 110.861ZM65.7621 114V99.4545H68.7876V114H65.7621ZM72.5803 114L69.37 109.249L71.3871 107.111L76.1243 114H72.5803ZM86.4794 106.202L83.7095 106.372C83.6622 106.135 83.5604 105.922 83.4041 105.733C83.2479 105.539 83.0419 105.385 82.7862 105.271C82.5353 105.153 82.2346 105.094 81.8842 105.094C81.4155 105.094 81.0201 105.193 80.6982 105.392C80.3762 105.586 80.2152 105.847 80.2152 106.173C80.2152 106.434 80.3194 106.654 80.5277 106.834C80.736 107.014 81.0935 107.158 81.6001 107.267L83.5746 107.665C84.6352 107.883 85.4259 108.233 85.9467 108.716C86.4676 109.199 86.728 109.833 86.728 110.619C86.728 111.334 86.5173 111.962 86.0959 112.501C85.6792 113.041 85.1063 113.463 84.3771 113.766C83.6527 114.064 82.817 114.213 81.87 114.213C80.4259 114.213 79.2753 113.912 78.4183 113.311C77.5661 112.705 77.0665 111.881 76.9197 110.839L79.8956 110.683C79.9856 111.124 80.2034 111.46 80.549 111.692C80.8946 111.919 81.3374 112.033 81.8771 112.033C82.4074 112.033 82.8336 111.931 83.1555 111.727C83.4822 111.519 83.648 111.251 83.6527 110.925C83.648 110.65 83.532 110.425 83.3047 110.25C83.0774 110.07 82.727 109.933 82.2536 109.838L80.3643 109.462C79.299 109.249 78.5059 108.879 77.9851 108.354C77.469 107.828 77.2109 107.158 77.2109 106.344C77.2109 105.643 77.4003 105.039 77.7791 104.533C78.1626 104.026 78.7 103.635 79.3913 103.361C80.0874 103.086 80.9018 102.949 81.8345 102.949C83.2124 102.949 84.2966 103.24 85.0874 103.822C85.8828 104.405 86.3468 105.198 86.4794 106.202ZM91.6587 107.693V114H88.6332V99.4545H91.5735V105.016H91.7013C91.9476 104.372 92.3453 103.867 92.8945 103.503C93.4438 103.134 94.1327 102.949 94.9613 102.949C95.7189 102.949 96.3794 103.115 96.9428 103.446C97.511 103.773 97.9513 104.244 98.2638 104.859C98.5811 105.47 98.7373 106.202 98.7326 107.054V114H95.707V107.594C95.7118 106.921 95.5413 106.398 95.1957 106.024C94.8548 105.65 94.3765 105.463 93.761 105.463C93.3491 105.463 92.9845 105.551 92.6673 105.726C92.3548 105.901 92.1085 106.157 91.9286 106.493C91.7534 106.824 91.6635 107.224 91.6587 107.693ZM102.591 118.091C102.207 118.091 101.848 118.06 101.511 117.999C101.18 117.942 100.905 117.868 100.688 117.778L101.369 115.52C101.724 115.629 102.044 115.688 102.328 115.697C102.617 115.707 102.866 115.641 103.074 115.499C103.287 115.357 103.46 115.115 103.592 114.774L103.77 114.312L99.8565 103.091H103.038L105.297 111.102H105.411L107.69 103.091H110.893L106.653 115.179C106.45 115.766 106.173 116.277 105.822 116.713C105.477 117.153 105.039 117.492 104.509 117.729C103.978 117.97 103.339 118.091 102.591 118.091ZM115.26 114.206C114.564 114.206 113.943 114.085 113.399 113.844C112.854 113.598 112.423 113.235 112.106 112.757C111.794 112.274 111.637 111.673 111.637 110.953C111.637 110.347 111.749 109.838 111.971 109.426C112.194 109.014 112.497 108.683 112.88 108.432C113.264 108.181 113.699 107.991 114.187 107.864C114.68 107.736 115.196 107.646 115.735 107.594C116.37 107.527 116.881 107.466 117.27 107.409C117.658 107.348 117.94 107.258 118.115 107.139C118.29 107.021 118.377 106.846 118.377 106.614V106.571C118.377 106.121 118.235 105.773 117.951 105.527C117.672 105.281 117.274 105.158 116.758 105.158C116.214 105.158 115.78 105.278 115.458 105.52C115.136 105.757 114.923 106.055 114.819 106.415L112.021 106.188C112.163 105.525 112.442 104.952 112.859 104.469C113.276 103.981 113.813 103.607 114.471 103.347C115.134 103.081 115.901 102.949 116.772 102.949C117.378 102.949 117.958 103.02 118.512 103.162C119.071 103.304 119.566 103.524 119.997 103.822C120.432 104.121 120.776 104.504 121.027 104.973C121.278 105.437 121.403 105.993 121.403 106.642V114H118.534V112.487H118.449C118.273 112.828 118.039 113.129 117.745 113.389C117.452 113.645 117.099 113.846 116.687 113.993C116.275 114.135 115.799 114.206 115.26 114.206ZM116.126 112.118C116.571 112.118 116.964 112.03 117.305 111.855C117.646 111.675 117.913 111.434 118.108 111.131C118.302 110.828 118.399 110.484 118.399 110.101V108.943C118.304 109.005 118.174 109.062 118.008 109.114C117.847 109.161 117.665 109.206 117.461 109.249C117.258 109.286 117.054 109.322 116.85 109.355C116.647 109.384 116.462 109.41 116.297 109.433C115.941 109.485 115.631 109.568 115.366 109.682C115.101 109.795 114.895 109.949 114.748 110.143C114.601 110.333 114.528 110.57 114.528 110.854C114.528 111.266 114.677 111.58 114.975 111.798C115.279 112.011 115.662 112.118 116.126 112.118Z" fill="white"/>
<path d="M102.011 139V127.364H104.472V132.494H104.625L108.812 127.364H111.761L107.443 132.574L111.812 139H108.869L105.682 134.216L104.472 135.693V139H102.011ZM115.418 133.955V139H112.997V127.364H115.349V131.812H115.452C115.649 131.297 115.967 130.894 116.406 130.602C116.846 130.307 117.397 130.159 118.06 130.159C118.666 130.159 119.194 130.292 119.645 130.557C120.099 130.818 120.452 131.195 120.702 131.688C120.955 132.176 121.08 132.761 121.077 133.443V139H118.656V133.875C118.66 133.337 118.524 132.919 118.247 132.619C117.974 132.32 117.592 132.17 117.099 132.17C116.77 132.17 116.478 132.241 116.224 132.381C115.974 132.521 115.777 132.725 115.634 132.994C115.493 133.259 115.421 133.58 115.418 133.955ZM126.925 139.17C126.042 139.17 125.279 138.983 124.635 138.608C123.995 138.229 123.5 137.703 123.152 137.028C122.804 136.35 122.629 135.564 122.629 134.67C122.629 133.769 122.804 132.981 123.152 132.307C123.5 131.629 123.995 131.102 124.635 130.727C125.279 130.348 126.042 130.159 126.925 130.159C127.807 130.159 128.569 130.348 129.209 130.727C129.853 131.102 130.349 131.629 130.697 132.307C131.046 132.981 131.22 133.769 131.22 134.67C131.22 135.564 131.046 136.35 130.697 137.028C130.349 137.703 129.853 138.229 129.209 138.608C128.569 138.983 127.807 139.17 126.925 139.17ZM126.936 137.295C127.338 137.295 127.673 137.182 127.942 136.955C128.211 136.723 128.413 136.409 128.55 136.011C128.69 135.614 128.76 135.161 128.76 134.653C128.76 134.146 128.69 133.693 128.55 133.295C128.413 132.898 128.211 132.583 127.942 132.352C127.673 132.121 127.338 132.006 126.936 132.006C126.531 132.006 126.19 132.121 125.913 132.352C125.641 132.583 125.434 132.898 125.294 133.295C125.158 133.693 125.089 134.146 125.089 134.653C125.089 135.161 125.158 135.614 125.294 136.011C125.434 136.409 125.641 136.723 125.913 136.955C126.19 137.182 126.531 137.295 126.936 137.295ZM132.794 130.273H135.214V139.432C135.214 140.106 135.082 140.652 134.817 141.068C134.552 141.485 134.171 141.79 133.675 141.983C133.182 142.176 132.593 142.273 131.908 142.273C131.824 142.273 131.745 142.271 131.669 142.267C131.589 142.267 131.506 142.265 131.419 142.261V140.369C131.483 140.373 131.54 140.375 131.589 140.375C131.635 140.379 131.684 140.381 131.737 140.381C132.127 140.381 132.4 140.297 132.555 140.131C132.714 139.968 132.794 139.722 132.794 139.392V130.273ZM133.999 129.148C133.643 129.148 133.336 129.028 133.078 128.79C132.821 128.547 132.692 128.258 132.692 127.92C132.692 127.587 132.821 127.301 133.078 127.062C133.336 126.82 133.643 126.699 133.999 126.699C134.362 126.699 134.671 126.82 134.925 127.062C135.182 127.301 135.311 127.587 135.311 127.92C135.311 128.258 135.182 128.547 134.925 128.79C134.671 129.028 134.362 129.148 133.999 129.148ZM137.153 139V130.273H139.574V139H137.153ZM138.369 129.148C138.009 129.148 137.701 129.028 137.443 128.79C137.189 128.547 137.062 128.258 137.062 127.92C137.062 127.587 137.189 127.301 137.443 127.062C137.701 126.82 138.009 126.699 138.369 126.699C138.729 126.699 139.036 126.82 139.29 127.062C139.547 127.301 139.676 127.587 139.676 127.92C139.676 128.258 139.547 128.547 139.29 128.79C139.036 129.028 138.729 129.148 138.369 129.148Z" fill="#F49F1C"/>
<path d="M129.773 95.7273V119H124.932V95.7273H129.773Z" fill="white"/>
<path d="M97.8383 121.973V145.245H92.9974V121.973H97.8383Z" fill="#F49F1C"/>
</svg>
